<?xml version="1.0" standalone="no"?>
<!DOCTYPE svg PUBLIC "-//W3C//DTD SVG 20010904//EN"
 "http://www.w3.org/TR/2001/REC-SVG-20010904/DTD/svg10.dtd">
<svg version="1.0" xmlns="http://www.w3.org/2000/svg"
 width="2500.000000pt" height="2500.000000pt" viewBox="0 0 2500.000000 2500.000000"
 preserveAspectRatio="xMidYMid meet">
<metadata>
Created by potrace 1.11, written by Peter Selinger 2001-2013
</metadata>
<g transform="translate(0.000000,2500.000000) scale(0.100000,-0.100000)"
fill="#000000" stroke="none">
<path d="M17866 20989 c-71 -17 -173 -79 -231 -140 -173 -181 -177 -489 -8
-670 90 -97 179 -142 315 -159 213 -26 409 83 508 283 68 140 72 273 10 402
-54 112 -149 206 -260 259 -60 28 -75 31 -180 33 -63 1 -132 -2 -154 -8z"/>
<path d="M20524 20632 c-98 -35 -218 -149 -250 -239 -8 -23 -13 -82 -13 -148
-1 -96 2 -117 24 -163 32 -69 120 -156 192 -190 53 -24 69 -27 173 -27 107 0
119 2 175 29 79 39 144 106 186 192 31 63 34 77 34 159 -1 128 -26 188 -119
281 -98 99 -137 117 -256 121 -73 3 -107 -1 -146 -15z"/>
<path d="M15077 20249 c-154 -20 -289 -89 -407 -208 -82 -83 -133 -163 -182
-286 -32 -79 -32 -83 -33 -245 0 -154 2 -170 27 -238 85 -235 293 -419 548
-488 77 -20 249 -23 325 -5 150 36 274 108 390 225 73 73 99 108 133 176 64
130 75 189 69 355 -4 117 -9 152 -31 215 -39 109 -100 205 -185 291 -176 176
-385 242 -654 208z"/>
<path d="M22443 19764 c-58 -21 -138 -96 -171 -158 -23 -44 -27 -63 -27 -141
0 -76 4 -98 26 -145 35 -76 70 -114 131 -144 45 -23 65 -26 147 -26 53 0 113
5 135 11 54 15 124 83 157 154 25 52 29 72 29 150 0 66 -5 101 -19 130 -28 60
-82 117 -142 150 -46 25 -67 29 -139 32 -58 2 -98 -2 -127 -13z"/>
<path d="M12863 18220 c-92 -25 -203 -76 -295 -135 -194 -126 -339 -336 -394
-571 -27 -114 -25 -359 4 -465 90 -335 359 -597 698 -681 104 -25 306 -30 414
-9 168 33 313 116 468 269 138 136 213 252 262 407 32 99 40 327 15 446 -37
184 -118 332 -260 475 -139 141 -301 235 -464 270 -102 21 -357 18 -448 -6z"/>
<path d="M16015 17003 c-55 -25 -264 -121 -465 -215 -201 -94 -395 -184 -433
-201 l-68 -30 4 -2516 c3 -2773 -2 -2538 63 -2729 126 -372 456 -649 939 -788
280 -81 553 -119 1009 -139 l139 -6 -5 366 c-4 202 -8 368 -10 371 -3 2 -65 9
-139 14 -231 18 -416 76 -565 178 -177 120 -301 306 -324 484 -6 44 -10 883
-10 2079 0 2248 -7 3179 -24 3178 -6 0 -56 -21 -111 -46z"/>
<path d="M10753 15358 c-54 -45 -172 -147 -263 -227 -91 -79 -173 -151 -182
-159 -16 -13 -31 -10 -145 36 -284 113 -571 172 -983 203 -198 15 -654 6 -810
-15 -458 -63 -838 -196 -1160 -404 -195 -126 -404 -333 -522 -517 -140 -217
-196 -399 -205 -665 -15 -456 98 -797 366 -1105 176 -203 492 -411 809 -535
62 -24 115 -47 117 -50 3 -4 -57 -22 -133 -40 -384 -91 -651 -218 -816 -390
-95 -98 -119 -155 -120 -284 0 -121 14 -186 62 -285 42 -88 145 -197 234 -249
221 -131 487 -190 883 -199 201 -4 263 -2 490 22 143 14 358 39 478 55 330 45
464 53 737 47 268 -6 418 -25 571 -73 239 -75 378 -207 410 -392 27 -153 -47
-305 -212 -436 -218 -173 -537 -273 -999 -315 -173 -16 -572 -14 -725 4 -405
48 -843 179 -1323 396 -84 38 -154 69 -157 69 -4 0 -513 -563 -558 -618 -15
-19 -25 -38 -21 -43 3 -5 45 -29 92 -53 409 -205 1086 -391 1687 -463 216 -26
980 -26 1200 0 657 77 1123 225 1520 484 420 274 603 607 565 1026 -25 268
-117 461 -312 654 -111 111 -164 150 -283 210 -182 92 -396 160 -655 207 -207
38 -346 48 -679 48 -328 1 -401 -4 -841 -57 -362 -44 -511 -55 -735 -55 -319
0 -471 28 -546 100 -33 31 -39 43 -39 78 0 49 38 98 104 136 55 32 333 121
438 141 46 8 317 35 603 60 776 67 868 79 1143 151 678 176 1227 622 1395
1132 64 193 72 250 72 512 -1 264 -13 346 -81 541 -61 177 -130 298 -245 436
-38 45 -69 84 -69 86 0 3 132 81 293 175 161 94 301 178 312 187 20 15 19 15
-11 43 -16 16 -149 113 -295 217 -145 103 -285 203 -311 222 l-47 34 -98 -83z
m-1543 -813 c375 -61 726 -315 880 -636 55 -117 80 -221 87 -365 15 -316 -96
-604 -318 -824 -170 -168 -386 -268 -670 -311 -124 -19 -461 -16 -584 5 -269
45 -452 128 -637 290 -161 139 -273 316 -325 511 -24 91 -26 116 -26 290 0
165 2 201 21 269 59 212 212 418 415 554 150 102 355 186 517 212 41 6 82 13
90 15 8 1 114 3 235 4 155 1 248 -4 315 -14z"/>
<path d="M2840 15214 c-394 -35 -988 -166 -1314 -290 -109 -42 -326 -144 -326
-154 0 -17 401 -618 447 -672 14 -16 20 -14 87 31 268 181 589 288 1041 348
100 13 204 17 450 17 285 0 333 -2 435 -22 159 -29 279 -65 387 -117 117 -55
170 -92 262 -179 139 -134 222 -290 267 -499 14 -66 36 -308 29 -315 -2 -2
-57 8 -122 22 -275 60 -345 68 -624 73 -899 17 -1619 -151 -2206 -516 -564
-350 -819 -769 -774 -1274 24 -270 128 -499 320 -700 242 -254 564 -435 926
-520 175 -42 335 -57 585 -57 824 -1 1474 189 1927 561 39 33 74 59 76 59 3 0
27 -37 54 -82 34 -58 79 -114 153 -188 91 -91 119 -112 205 -157 172 -88 379
-148 595 -172 85 -10 403 -30 473 -31 l27 0 0 214 c0 214 0 215 -22 221 -38
12 -137 75 -200 127 -75 63 -140 150 -190 256 -71 151 -69 122 -78 1067 -13
1392 -14 1404 -76 1650 -76 300 -206 538 -404 736 -305 308 -774 476 -1535
550 -109 10 -789 20 -875 13z m1275 -2380 c83 -8 224 -25 315 -37 l165 -23 3
-575 2 -575 -87 -73 c-261 -215 -537 -359 -840 -437 -213 -54 -339 -67 -623
-61 -281 5 -413 24 -589 83 -140 46 -217 91 -307 177 -123 116 -175 247 -175
442 0 189 55 339 182 493 278 337 768 539 1444 595 114 10 378 5 510 -9z"/>
<path d="M19990 15214 c-272 -24 -525 -70 -744 -134 -774 -226 -1447 -772
-1720 -1395 -146 -334 -198 -651 -175 -1075 29 -539 231 -986 618 -1370 484
-481 1160 -772 1946 -840 153 -13 619 -13 795 0 497 36 949 118 1286 234 228
78 592 245 902 413 l82 45 -47 66 c-80 114 -372 499 -388 512 -12 10 -53 -6
-236 -94 -474 -230 -773 -342 -1089 -410 -499 -107 -1063 -99 -1494 19 -512
141 -927 480 -1100 896 -68 164 -121 436 -114 581 l3 63 2256 3 2256 2 22 103
c38 173 54 337 47 487 -11 274 -68 495 -187 730 -83 163 -169 280 -309 421
-397 398 -976 636 -1765 725 -133 15 -735 28 -845 18z m725 -708 c428 -65 742
-206 981 -440 187 -184 293 -406 311 -648 l6 -88 -1737 0 -1736 0 6 28 c37
169 64 248 126 362 189 352 557 621 1003 734 128 32 202 45 345 62 149 17 555
11 695 -10z"/>
<path d="M11920 14800 l0 -350 430 0 430 0 0 -1995 0 -1995 553 0 552 0 -3
2337 c-2 1286 -4 2338 -5 2339 -1 1 -442 4 -979 8 l-978 7 0 -351z"/>
<path d="M23445 13221 c-25 -5 -27 -8 -12 -14 10 -4 36 -7 58 -7 l39 0 0 -230
0 -230 25 0 25 0 0 230 0 230 43 0 c59 0 79 15 30 23 -47 8 -168 7 -208 -2z"/>
<path d="M23750 12986 l0 -246 25 0 25 0 0 222 c0 122 3 219 6 216 3 -3 23
-70 45 -149 76 -273 78 -279 99 -279 22 0 28 16 75 215 60 251 59 251 65 3 5
-204 9 -242 28 -224 4 4 8 116 10 248 l3 241 -28 -8 c-15 -3 -29 -8 -31 -10
-2 -1 -27 -83 -57 -181 -76 -252 -69 -240 -88 -174 -8 30 -32 120 -53 200 -20
80 -40 149 -44 153 -4 4 -23 10 -43 14 l-37 6 0 -247z"/>
<path d="M12963 9400 c-327 -34 -664 -323 -771 -660 -79 -248 -46 -536 86
-758 133 -222 375 -402 612 -457 88 -20 318 -20 416 0 272 57 542 278 659 541
78 174 104 398 67 574 -70 340 -342 640 -664 734 -88 25 -287 38 -405 26z"/>
<path d="M10802 6960 c-125 -33 -204 -82 -323 -200 -113 -112 -167 -184 -201
-271 -18 -45 -22 -80 -26 -215 -5 -191 4 -243 60 -357 34 -68 59 -100 147
-187 160 -158 264 -210 463 -231 198 -20 363 25 535 147 86 61 158 145 204
239 53 109 69 178 76 326 7 154 -10 242 -69 362 -34 67 -60 101 -142 183 -83
82 -117 108 -191 146 -49 26 -118 53 -151 62 -89 23 -287 21 -382 -4z"/>
<path d="M3515 6582 c-56 -27 -141 -116 -173 -182 -21 -44 -27 -69 -26 -120 1
-84 32 -146 110 -221 78 -74 129 -93 231 -87 128 8 228 73 279 182 19 40 24
68 24 132 0 70 -4 89 -30 142 -33 66 -76 109 -143 144 -60 31 -215 37 -272 10z"/>
<path d="M5405 5907 c-86 -29 -153 -82 -214 -170 -80 -117 -94 -290 -35 -417
40 -84 111 -162 177 -195 72 -35 203 -50 300 -35 143 22 227 83 292 212 35 70
35 72 35 198 0 123 -1 129 -32 191 -40 81 -121 162 -195 197 -51 23 -72 27
-173 29 -75 2 -129 -2 -155 -10z"/>
<path d="M8130 5730 c-205 -26 -364 -162 -415 -355 -17 -68 -19 -189 -4 -255
13 -58 57 -147 99 -198 67 -84 203 -159 327 -181 171 -31 421 104 503 273 75
153 57 389 -40 517 -111 148 -287 222 -470 199z"/>
</g>
</svg>
